<svg width="182" height="11" viewBox="0 0 182 11" fill="none" xmlns="http://www.w3.org/2000/svg">
<path d="M8.45881 4.32812H6.59233C6.55824 4.08665 6.48864 3.87216 6.38352 3.68466C6.27841 3.49432 6.14347 3.33239 5.97869 3.19886C5.81392 3.06534 5.62358 2.96307 5.40767 2.89205C5.1946 2.82102 4.96307 2.78551 4.71307 2.78551C4.26136 2.78551 3.8679 2.89773 3.53267 3.12216C3.19744 3.34375 2.9375 3.66761 2.75284 4.09375C2.56818 4.51705 2.47585 5.03125 2.47585 5.63636C2.47585 6.25852 2.56818 6.78125 2.75284 7.20455C2.94034 7.62784 3.2017 7.94744 3.53693 8.16335C3.87216 8.37926 4.25994 8.48722 4.70028 8.48722C4.94744 8.48722 5.17614 8.45455 5.38636 8.3892C5.59943 8.32386 5.78835 8.22869 5.95312 8.10369C6.1179 7.97585 6.25426 7.82102 6.36222 7.6392C6.47301 7.45739 6.54972 7.25 6.59233 7.01705L8.45881 7.02557C8.41051 7.42614 8.28977 7.8125 8.09659 8.18466C7.90625 8.55398 7.64915 8.88494 7.32528 9.17756C7.00426 9.46733 6.62074 9.69744 6.17472 9.8679C5.73153 10.0355 5.23011 10.1193 4.67045 10.1193C3.89205 10.1193 3.19602 9.94318 2.58239 9.59091C1.97159 9.23864 1.48864 8.72869 1.13352 8.06108C0.78125 7.39347 0.605114 6.58523 0.605114 5.63636C0.605114 4.68466 0.784091 3.875 1.14205 3.20739C1.5 2.53977 1.9858 2.03125 2.59943 1.68182C3.21307 1.32955 3.90341 1.15341 4.67045 1.15341C5.17614 1.15341 5.64489 1.22443 6.0767 1.36648C6.51136 1.50852 6.89631 1.71591 7.23153 1.98864C7.56676 2.25852 7.83949 2.58949 8.04972 2.98153C8.26278 3.37358 8.39915 3.82244 8.45881 4.32812ZM11.6143 10.1236C11.1967 10.1236 10.8246 10.0511 10.4979 9.90625C10.1712 9.75852 9.91264 9.54119 9.7223 9.25426C9.5348 8.96449 9.44105 8.60369 9.44105 8.17188C9.44105 7.80824 9.50781 7.50284 9.64134 7.25568C9.77486 7.00852 9.95668 6.80966 10.1868 6.65909C10.4169 6.50852 10.6783 6.39489 10.9709 6.31818C11.2663 6.24148 11.576 6.1875 11.8999 6.15625C12.2805 6.11648 12.5874 6.07955 12.8203 6.04545C13.0533 6.00852 13.2223 5.95455 13.3274 5.88352C13.4325 5.8125 13.4851 5.70739 13.4851 5.56818V5.54261C13.4851 5.27273 13.3999 5.06392 13.2294 4.91619C13.0618 4.76847 12.8232 4.6946 12.5135 4.6946C12.1868 4.6946 11.9268 4.76705 11.7337 4.91193C11.5405 5.05398 11.4126 5.23295 11.3501 5.44886L9.67116 5.3125C9.75639 4.91477 9.92401 4.57102 10.174 4.28125C10.424 3.98864 10.7464 3.7642 11.1413 3.60795C11.5391 3.44886 11.9993 3.36932 12.522 3.36932C12.8857 3.36932 13.2337 3.41193 13.5661 3.49716C13.9013 3.58239 14.1982 3.71449 14.4567 3.89347C14.718 4.07244 14.924 4.30256 15.0746 4.58381C15.2251 4.86222 15.3004 5.19602 15.3004 5.58523V10H13.5788V9.09233H13.5277C13.4226 9.29688 13.282 9.47727 13.1058 9.63352C12.9297 9.78693 12.718 9.90767 12.4709 9.99574C12.2237 10.081 11.9382 10.1236 11.6143 10.1236ZM12.1342 8.87074C12.4013 8.87074 12.6371 8.81818 12.8416 8.71307C13.0462 8.60511 13.2067 8.46023 13.3232 8.27841C13.4396 8.09659 13.4979 7.89062 13.4979 7.66051V6.96591C13.4411 7.00284 13.3629 7.03693 13.2635 7.06818C13.1669 7.09659 13.0575 7.12358 12.9354 7.14915C12.8132 7.17187 12.6911 7.19318 12.5689 7.21307C12.4467 7.23011 12.3359 7.24574 12.2365 7.25994C12.0234 7.29119 11.8374 7.34091 11.6783 7.40909C11.5192 7.47727 11.3956 7.5696 11.3075 7.68608C11.2195 7.79972 11.1754 7.94176 11.1754 8.11222C11.1754 8.35938 11.2649 8.5483 11.4439 8.67898C11.6257 8.80682 11.8558 8.87074 12.1342 8.87074ZM16.7088 10V3.45455H18.5241V10H16.7088ZM17.6207 2.6108C17.3509 2.6108 17.1193 2.52131 16.9261 2.34233C16.7358 2.16051 16.6406 1.94318 16.6406 1.69034C16.6406 1.44034 16.7358 1.22585 16.9261 1.04688C17.1193 0.865057 17.3509 0.774147 17.6207 0.774147C17.8906 0.774147 18.1207 0.865057 18.3111 1.04688C18.5043 1.22585 18.6009 1.44034 18.6009 1.69034C18.6009 1.94318 18.5043 2.16051 18.3111 2.34233C18.1207 2.52131 17.8906 2.6108 17.6207 2.6108ZM19.9783 10V3.45455H21.7383V4.59659H21.8065C21.9258 4.19034 22.1261 3.88352 22.4073 3.67614C22.6886 3.46591 23.0124 3.3608 23.3789 3.3608C23.4698 3.3608 23.5678 3.36648 23.6729 3.37784C23.7781 3.3892 23.8704 3.40483 23.9499 3.42472V5.03551C23.8647 5.00994 23.7468 4.98722 23.5962 4.96733C23.4457 4.94744 23.3079 4.9375 23.1829 4.9375C22.9158 4.9375 22.6772 4.99574 22.467 5.11222C22.2596 5.22585 22.0948 5.38494 21.9727 5.58949C21.8533 5.79403 21.7937 6.02983 21.7937 6.29688V10H19.9783ZM27.5412 10.1278C26.8793 10.1278 26.3068 9.98722 25.8239 9.70597C25.3438 9.42187 24.973 9.02699 24.7116 8.52131C24.4503 8.01278 24.3196 7.4233 24.3196 6.75284C24.3196 6.0767 24.4503 5.4858 24.7116 4.98011C24.973 4.47159 25.3438 4.0767 25.8239 3.79545C26.3068 3.51136 26.8793 3.36932 27.5412 3.36932C28.2031 3.36932 28.7741 3.51136 29.2543 3.79545C29.7372 4.0767 30.1094 4.47159 30.3707 4.98011C30.6321 5.4858 30.7628 6.0767 30.7628 6.75284C30.7628 7.4233 30.6321 8.01278 30.3707 8.52131C30.1094 9.02699 29.7372 9.42187 29.2543 9.70597C28.7741 9.98722 28.2031 10.1278 27.5412 10.1278ZM27.5497 8.72159C27.8509 8.72159 28.1023 8.63636 28.304 8.46591C28.5057 8.29261 28.6577 8.05682 28.7599 7.75852C28.8651 7.46023 28.9176 7.12074 28.9176 6.74006C28.9176 6.35938 28.8651 6.01989 28.7599 5.72159C28.6577 5.4233 28.5057 5.1875 28.304 5.0142C28.1023 4.84091 27.8509 4.75426 27.5497 4.75426C27.2457 4.75426 26.9901 4.84091 26.7827 5.0142C26.5781 5.1875 26.4233 5.4233 26.3182 5.72159C26.2159 6.01989 26.1648 6.35938 26.1648 6.74006C26.1648 7.12074 26.2159 7.46023 26.3182 7.75852C26.4233 8.05682 26.5781 8.29261 26.7827 8.46591C26.9901 8.63636 27.2457 8.72159 27.5497 8.72159ZM34.7205 10V3.45455H36.4506V4.60938H36.5273C36.6637 4.22585 36.891 3.9233 37.2092 3.7017C37.5273 3.48011 37.908 3.36932 38.3512 3.36932C38.8001 3.36932 39.1822 3.48153 39.4975 3.70597C39.8129 3.92756 40.0231 4.22869 40.1282 4.60938H40.1964C40.3299 4.23438 40.5714 3.93466 40.9208 3.71023C41.2731 3.48295 41.6893 3.36932 42.1694 3.36932C42.7802 3.36932 43.2759 3.56392 43.6566 3.95312C44.0401 4.33949 44.2319 4.88778 44.2319 5.59801V10H42.4208V5.95597C42.4208 5.59233 42.3242 5.3196 42.131 5.13778C41.9379 4.95597 41.6964 4.86506 41.4066 4.86506C41.0771 4.86506 40.82 4.97017 40.6353 5.1804C40.4506 5.38778 40.3583 5.66193 40.3583 6.00284V10H38.5984V5.91761C38.5984 5.59659 38.506 5.34091 38.3214 5.15057C38.1396 4.96023 37.8995 4.86506 37.6012 4.86506C37.3995 4.86506 37.2177 4.91619 37.0558 5.01847C36.8967 5.1179 36.7702 5.25852 36.6765 5.44034C36.5827 5.61932 36.5359 5.82955 36.5359 6.07102V10H34.7205ZM48.6488 10.1278C47.9755 10.1278 47.396 9.99148 46.9102 9.71875C46.4272 9.44318 46.055 9.05398 45.7937 8.55114C45.5323 8.04545 45.4016 7.44744 45.4016 6.7571C45.4016 6.08381 45.5323 5.4929 45.7937 4.98438C46.055 4.47585 46.4229 4.07955 46.8974 3.79545C47.3746 3.51136 47.9343 3.36932 48.5763 3.36932C49.0082 3.36932 49.4102 3.43892 49.7823 3.57812C50.1573 3.71449 50.484 3.92045 50.7624 4.19602C51.0437 4.47159 51.2624 4.81818 51.4187 5.2358C51.5749 5.65057 51.6531 6.13636 51.6531 6.69318V7.19176H46.1261V6.06676H49.9442C49.9442 5.8054 49.8874 5.57386 49.7738 5.37216C49.6602 5.17045 49.5025 5.01278 49.3008 4.89915C49.1019 4.78267 48.8704 4.72443 48.6062 4.72443C48.3306 4.72443 48.0863 4.78835 47.8732 4.91619C47.663 5.04119 47.4982 5.21023 47.3789 5.4233C47.2596 5.63352 47.1985 5.8679 47.1957 6.12642V7.19602C47.1957 7.51989 47.2553 7.79972 47.3746 8.03551C47.4968 8.27131 47.6687 8.45312 47.8903 8.58097C48.1119 8.70881 48.3746 8.77273 48.6786 8.77273C48.8803 8.77273 49.065 8.74432 49.2326 8.6875C49.4002 8.63068 49.5437 8.54545 49.663 8.43182C49.7823 8.31818 49.8732 8.17898 49.9357 8.0142L51.6147 8.125C51.5295 8.52841 51.3548 8.88068 51.0906 9.18182C50.8292 9.48011 50.4911 9.71307 50.0763 9.88068C49.6644 10.0455 49.1886 10.1278 48.6488 10.1278ZM56.3192 3.45455V4.81818H52.3775V3.45455H56.3192ZM53.2724 1.88636H55.0877V7.98864C55.0877 8.15625 55.1133 8.28693 55.1644 8.38068C55.2156 8.47159 55.2866 8.53551 55.3775 8.57244C55.4712 8.60937 55.5792 8.62784 55.7013 8.62784C55.7866 8.62784 55.8718 8.62074 55.957 8.60653C56.0423 8.58949 56.1076 8.5767 56.1531 8.56818L56.4386 9.91903C56.3477 9.94744 56.2198 9.98011 56.055 10.017C55.8903 10.0568 55.69 10.081 55.4542 10.0895C55.0167 10.1065 54.6332 10.0483 54.3036 9.91477C53.9769 9.78125 53.7227 9.57386 53.5408 9.29261C53.359 9.01136 53.2695 8.65625 53.2724 8.22727V1.88636ZM57.5018 10V3.45455H59.2617V4.59659H59.3299C59.4492 4.19034 59.6495 3.88352 59.9308 3.67614C60.212 3.46591 60.5359 3.3608 60.9023 3.3608C60.9933 3.3608 61.0913 3.36648 61.1964 3.37784C61.3015 3.3892 61.3938 3.40483 61.4734 3.42472V5.03551C61.3881 5.00994 61.2702 4.98722 61.1197 4.96733C60.9691 4.94744 60.8313 4.9375 60.7063 4.9375C60.4393 4.9375 60.2006 4.99574 59.9904 5.11222C59.783 5.22585 59.6183 5.38494 59.4961 5.58949C59.3768 5.79403 59.3171 6.02983 59.3171 6.29688V10H57.5018ZM65.0646 10.1278C64.4027 10.1278 63.8303 9.98722 63.3473 9.70597C62.8672 9.42187 62.4964 9.02699 62.2351 8.52131C61.9737 8.01278 61.843 7.4233 61.843 6.75284C61.843 6.0767 61.9737 5.4858 62.2351 4.98011C62.4964 4.47159 62.8672 4.0767 63.3473 3.79545C63.8303 3.51136 64.4027 3.36932 65.0646 3.36932C65.7266 3.36932 66.2976 3.51136 66.7777 3.79545C67.2607 4.0767 67.6328 4.47159 67.8942 4.98011C68.1555 5.4858 68.2862 6.0767 68.2862 6.75284C68.2862 7.4233 68.1555 8.01278 67.8942 8.52131C67.6328 9.02699 67.2607 9.42187 66.7777 9.70597C66.2976 9.98722 65.7266 10.1278 65.0646 10.1278ZM65.0732 8.72159C65.3743 8.72159 65.6257 8.63636 65.8274 8.46591C66.0291 8.29261 66.1811 8.05682 66.2834 7.75852C66.3885 7.46023 66.4411 7.12074 66.4411 6.74006C66.4411 6.35938 66.3885 6.01989 66.2834 5.72159C66.1811 5.4233 66.0291 5.1875 65.8274 5.0142C65.6257 4.84091 65.3743 4.75426 65.0732 4.75426C64.7692 4.75426 64.5135 4.84091 64.3061 5.0142C64.1016 5.1875 63.9467 5.4233 63.8416 5.72159C63.7393 6.01989 63.6882 6.35938 63.6882 6.74006C63.6882 7.12074 63.7393 7.46023 63.8416 7.75852C63.9467 8.05682 64.1016 8.29261 64.3061 8.46591C64.5135 8.63636 64.7692 8.72159 65.0732 8.72159ZM72.244 10V3.45455H74.0039V4.59659H74.0721C74.1914 4.19034 74.3917 3.88352 74.6729 3.67614C74.9542 3.46591 75.2781 3.3608 75.6445 3.3608C75.7354 3.3608 75.8335 3.36648 75.9386 3.37784C76.0437 3.3892 76.136 3.40483 76.2156 3.42472V5.03551C76.1303 5.00994 76.0124 4.98722 75.8619 4.96733C75.7113 4.94744 75.5735 4.9375 75.4485 4.9375C75.1815 4.9375 74.9428 4.99574 74.7326 5.11222C74.5252 5.22585 74.3604 5.38494 74.2383 5.58949C74.119 5.79403 74.0593 6.02983 74.0593 6.29688V10H72.244ZM79.8324 10.1278C79.1591 10.1278 78.5795 9.99148 78.0938 9.71875C77.6108 9.44318 77.2386 9.05398 76.9773 8.55114C76.7159 8.04545 76.5852 7.44744 76.5852 6.7571C76.5852 6.08381 76.7159 5.4929 76.9773 4.98438C77.2386 4.47585 77.6065 4.07955 78.081 3.79545C78.5582 3.51136 79.1179 3.36932 79.7599 3.36932C80.1918 3.36932 80.5938 3.43892 80.9659 3.57812C81.3409 3.71449 81.6676 3.92045 81.946 4.19602C82.2273 4.47159 82.446 4.81818 82.6023 5.2358C82.7585 5.65057 82.8366 6.13636 82.8366 6.69318V7.19176H77.3097V6.06676H81.1278C81.1278 5.8054 81.071 5.57386 80.9574 5.37216C80.8438 5.17045 80.6861 5.01278 80.4844 4.89915C80.2855 4.78267 80.054 4.72443 79.7898 4.72443C79.5142 4.72443 79.2699 4.78835 79.0568 4.91619C78.8466 5.04119 78.6818 5.21023 78.5625 5.4233C78.4432 5.63352 78.3821 5.8679 78.3793 6.12642V7.19602C78.3793 7.51989 78.4389 7.79972 78.5582 8.03551C78.6804 8.27131 78.8523 8.45312 79.0739 8.58097C79.2955 8.70881 79.5582 8.77273 79.8622 8.77273C80.0639 8.77273 80.2486 8.74432 80.4162 8.6875C80.5838 8.63068 80.7273 8.54545 80.8466 8.43182C80.9659 8.31818 81.0568 8.17898 81.1193 8.0142L82.7983 8.125C82.7131 8.52841 82.5384 8.88068 82.2741 9.18182C82.0128 9.48011 81.6747 9.71307 81.2599 9.88068C80.848 10.0455 80.3722 10.1278 79.8324 10.1278ZM89.4673 5.32102L87.8054 5.4233C87.777 5.28125 87.7159 5.15341 87.6222 5.03977C87.5284 4.9233 87.4048 4.83097 87.2514 4.76278C87.1009 4.69176 86.9205 4.65625 86.7102 4.65625C86.429 4.65625 86.1918 4.71591 85.9986 4.83523C85.8054 4.9517 85.7088 5.10795 85.7088 5.30398C85.7088 5.46023 85.7713 5.59233 85.8963 5.70028C86.0213 5.80824 86.2358 5.89489 86.5398 5.96023L87.7244 6.19886C88.3608 6.32955 88.8352 6.53977 89.1477 6.82955C89.4602 7.11932 89.6165 7.5 89.6165 7.97159C89.6165 8.40057 89.4901 8.77699 89.2372 9.10085C88.9872 9.42472 88.6435 9.67756 88.206 9.85938C87.7713 10.0384 87.2699 10.1278 86.7017 10.1278C85.8352 10.1278 85.1449 9.94744 84.6307 9.58665C84.1193 9.22301 83.8196 8.72869 83.7315 8.10369L85.517 8.00994C85.571 8.27415 85.7017 8.47585 85.9091 8.61506C86.1165 8.75142 86.3821 8.8196 86.706 8.8196C87.0241 8.8196 87.2798 8.75852 87.473 8.63636C87.669 8.51136 87.7685 8.35085 87.7713 8.15483C87.7685 7.99006 87.6989 7.85511 87.5625 7.75C87.4261 7.64205 87.2159 7.55966 86.9318 7.50284L85.7983 7.27699C85.1591 7.14915 84.6832 6.92756 84.3707 6.61222C84.0611 6.29687 83.9062 5.89489 83.9062 5.40625C83.9062 4.9858 84.0199 4.62358 84.2472 4.3196C84.4773 4.01562 84.7997 3.78125 85.2145 3.61648C85.6321 3.4517 86.1207 3.36932 86.6804 3.36932C87.5071 3.36932 88.1577 3.54403 88.6321 3.89347C89.1094 4.2429 89.3878 4.71875 89.4673 5.32102ZM93.7425 10.1278C93.0692 10.1278 92.4897 9.99148 92.0039 9.71875C91.521 9.44318 91.1488 9.05398 90.8874 8.55114C90.6261 8.04545 90.4954 7.44744 90.4954 6.7571C90.4954 6.08381 90.6261 5.4929 90.8874 4.98438C91.1488 4.47585 91.5167 4.07955 91.9911 3.79545C92.4684 3.51136 93.0281 3.36932 93.6701 3.36932C94.1019 3.36932 94.5039 3.43892 94.8761 3.57812C95.2511 3.71449 95.5778 3.92045 95.8562 4.19602C96.1374 4.47159 96.3562 4.81818 96.5124 5.2358C96.6687 5.65057 96.7468 6.13636 96.7468 6.69318V7.19176H91.2198V6.06676H95.038C95.038 5.8054 94.9812 5.57386 94.8675 5.37216C94.7539 5.17045 94.5962 5.01278 94.3945 4.89915C94.1957 4.78267 93.9641 4.72443 93.6999 4.72443C93.4244 4.72443 93.18 4.78835 92.967 4.91619C92.7567 5.04119 92.592 5.21023 92.4727 5.4233C92.3533 5.63352 92.2923 5.8679 92.2894 6.12642V7.19602C92.2894 7.51989 92.3491 7.79972 92.4684 8.03551C92.5906 8.27131 92.7624 8.45312 92.984 8.58097C93.2056 8.70881 93.4684 8.77273 93.7724 8.77273C93.9741 8.77273 94.1587 8.74432 94.3263 8.6875C94.494 8.63068 94.6374 8.54545 94.7567 8.43182C94.8761 8.31818 94.967 8.17898 95.0295 8.0142L96.7085 8.125C96.6232 8.52841 96.4485 8.88068 96.1843 9.18182C95.9229 9.48011 95.5849 9.71307 95.1701 9.88068C94.7582 10.0455 94.2823 10.1278 93.7425 10.1278ZM97.9315 10V3.45455H99.6914V4.59659H99.7596C99.8789 4.19034 100.079 3.88352 100.36 3.67614C100.642 3.46591 100.966 3.3608 101.332 3.3608C101.423 3.3608 101.521 3.36648 101.626 3.37784C101.731 3.3892 101.824 3.40483 101.903 3.42472V5.03551C101.818 5.00994 101.7 4.98722 101.549 4.96733C101.399 4.94744 101.261 4.9375 101.136 4.9375C100.869 4.9375 100.63 4.99574 100.42 5.11222C100.213 5.22585 100.048 5.38494 99.9258 5.58949C99.8065 5.79403 99.7468 6.02983 99.7468 6.29688V10H97.9315ZM109.143 3.45455L106.855 10H104.809L102.521 3.45455H104.439L105.798 8.13778H105.866L107.221 3.45455H109.143ZM111.763 10.1236C111.345 10.1236 110.973 10.0511 110.646 9.90625C110.32 9.75852 110.061 9.54119 109.871 9.25426C109.683 8.96449 109.589 8.60369 109.589 8.17188C109.589 7.80824 109.656 7.50284 109.79 7.25568C109.923 7.00852 110.105 6.80966 110.335 6.65909C110.565 6.50852 110.827 6.39489 111.119 6.31818C111.415 6.24148 111.724 6.1875 112.048 6.15625C112.429 6.11648 112.736 6.07955 112.969 6.04545C113.202 6.00852 113.371 5.95455 113.476 5.88352C113.581 5.8125 113.634 5.70739 113.634 5.56818V5.54261C113.634 5.27273 113.548 5.06392 113.378 4.91619C113.21 4.76847 112.972 4.6946 112.662 4.6946C112.335 4.6946 112.075 4.76705 111.882 4.91193C111.689 5.05398 111.561 5.23295 111.499 5.44886L109.82 5.3125C109.905 4.91477 110.072 4.57102 110.322 4.28125C110.572 3.98864 110.895 3.7642 111.29 3.60795C111.688 3.44886 112.148 3.36932 112.67 3.36932C113.034 3.36932 113.382 3.41193 113.714 3.49716C114.05 3.58239 114.347 3.71449 114.605 3.89347C114.866 4.07244 115.072 4.30256 115.223 4.58381C115.374 4.86222 115.449 5.19602 115.449 5.58523V10H113.727V9.09233H113.676C113.571 9.29688 113.43 9.47727 113.254 9.63352C113.078 9.78693 112.866 9.90767 112.619 9.99574C112.372 10.081 112.087 10.1236 111.763 10.1236ZM112.283 8.87074C112.55 8.87074 112.786 8.81818 112.99 8.71307C113.195 8.60511 113.355 8.46023 113.472 8.27841C113.588 8.09659 113.646 7.89062 113.646 7.66051V6.96591C113.589 7.00284 113.511 7.03693 113.412 7.06818C113.315 7.09659 113.206 7.12358 113.084 7.14915C112.962 7.17187 112.839 7.19318 112.717 7.21307C112.595 7.23011 112.484 7.24574 112.385 7.25994C112.172 7.29119 111.986 7.34091 111.827 7.40909C111.668 7.47727 111.544 7.5696 111.456 7.68608C111.368 7.79972 111.324 7.94176 111.324 8.11222C111.324 8.35938 111.413 8.5483 111.592 8.67898C111.774 8.80682 112.004 8.87074 112.283 8.87074ZM120.339 3.45455V4.81818H116.397V3.45455H120.339ZM117.292 1.88636H119.107V7.98864C119.107 8.15625 119.133 8.28693 119.184 8.38068C119.235 8.47159 119.306 8.53551 119.397 8.57244C119.491 8.60937 119.599 8.62784 119.721 8.62784C119.806 8.62784 119.891 8.62074 119.977 8.60653C120.062 8.58949 120.127 8.5767 120.173 8.56818L120.458 9.91903C120.367 9.94744 120.239 9.98011 120.075 10.017C119.91 10.0568 119.71 10.081 119.474 10.0895C119.036 10.1065 118.653 10.0483 118.323 9.91477C117.996 9.78125 117.742 9.57386 117.56 9.29261C117.379 9.01136 117.289 8.65625 117.292 8.22727V1.88636ZM121.521 10V3.45455H123.337V10H121.521ZM122.433 2.6108C122.163 2.6108 121.932 2.52131 121.739 2.34233C121.548 2.16051 121.453 1.94318 121.453 1.69034C121.453 1.44034 121.548 1.22585 121.739 1.04688C121.932 0.865057 122.163 0.774147 122.433 0.774147C122.703 0.774147 122.933 0.865057 123.124 1.04688C123.317 1.22585 123.413 1.44034 123.413 1.69034C123.413 1.94318 123.317 2.16051 123.124 2.34233C122.933 2.52131 122.703 2.6108 122.433 2.6108ZM127.748 10.1278C127.086 10.1278 126.514 9.98722 126.031 9.70597C125.551 9.42187 125.18 9.02699 124.919 8.52131C124.657 8.01278 124.527 7.4233 124.527 6.75284C124.527 6.0767 124.657 5.4858 124.919 4.98011C125.18 4.47159 125.551 4.0767 126.031 3.79545C126.514 3.51136 127.086 3.36932 127.748 3.36932C128.41 3.36932 128.981 3.51136 129.461 3.79545C129.944 4.0767 130.316 4.47159 130.578 4.98011C130.839 5.4858 130.97 6.0767 130.97 6.75284C130.97 7.4233 130.839 8.01278 130.578 8.52131C130.316 9.02699 129.944 9.42187 129.461 9.70597C128.981 9.98722 128.41 10.1278 127.748 10.1278ZM127.757 8.72159C128.058 8.72159 128.309 8.63636 128.511 8.46591C128.713 8.29261 128.865 8.05682 128.967 7.75852C129.072 7.46023 129.125 7.12074 129.125 6.74006C129.125 6.35938 129.072 6.01989 128.967 5.72159C128.865 5.4233 128.713 5.1875 128.511 5.0142C128.309 4.84091 128.058 4.75426 127.757 4.75426C127.453 4.75426 127.197 4.84091 126.99 5.0142C126.785 5.1875 126.63 5.4233 126.525 5.72159C126.423 6.01989 126.372 6.35938 126.372 6.74006C126.372 7.12074 126.423 7.46023 126.525 7.75852C126.63 8.05682 126.785 8.29261 126.99 8.46591C127.197 8.63636 127.453 8.72159 127.757 8.72159ZM133.966 6.21591V10H132.15V3.45455H133.88V4.60938H133.957C134.102 4.22869 134.345 3.92756 134.686 3.70597C135.027 3.48153 135.44 3.36932 135.926 3.36932C136.38 3.36932 136.777 3.46875 137.115 3.66761C137.453 3.86648 137.716 4.15057 137.903 4.51989C138.091 4.88636 138.184 5.32386 138.184 5.83239V10H136.369V6.15625C136.372 5.75568 136.27 5.44318 136.062 5.21875C135.855 4.99148 135.569 4.87784 135.206 4.87784C134.961 4.87784 134.745 4.9304 134.558 5.03551C134.373 5.14062 134.228 5.29403 134.123 5.49574C134.021 5.6946 133.968 5.93466 133.966 6.21591ZM145.874 3.45455V4.81818H141.932V3.45455H145.874ZM142.827 1.88636H144.642V7.98864C144.642 8.15625 144.668 8.28693 144.719 8.38068C144.77 8.47159 144.841 8.53551 144.932 8.57244C145.026 8.60937 145.134 8.62784 145.256 8.62784C145.341 8.62784 145.426 8.62074 145.512 8.60653C145.597 8.58949 145.662 8.5767 145.708 8.56818L145.993 9.91903C145.902 9.94744 145.775 9.98011 145.61 10.017C145.445 10.0568 145.245 10.081 145.009 10.0895C144.571 10.1065 144.188 10.0483 143.858 9.91477C143.532 9.78125 143.277 9.57386 143.096 9.29261C142.914 9.01136 142.824 8.65625 142.827 8.22727V1.88636ZM147.056 10V3.45455H148.872V10H147.056ZM147.968 2.6108C147.699 2.6108 147.467 2.52131 147.274 2.34233C147.083 2.16051 146.988 1.94318 146.988 1.69034C146.988 1.44034 147.083 1.22585 147.274 1.04688C147.467 0.865057 147.699 0.774147 147.968 0.774147C148.238 0.774147 148.468 0.865057 148.659 1.04688C148.852 1.22585 148.949 1.44034 148.949 1.69034C148.949 1.94318 148.852 2.16051 148.659 2.34233C148.468 2.52131 148.238 2.6108 147.968 2.6108ZM153.283 10.1278C152.613 10.1278 152.036 9.9858 151.553 9.7017C151.073 9.41477 150.704 9.01705 150.445 8.50852C150.19 8 150.062 7.41477 150.062 6.75284C150.062 6.08239 150.191 5.49432 150.45 4.98864C150.711 4.48011 151.082 4.08381 151.562 3.79972C152.042 3.51278 152.613 3.36932 153.275 3.36932C153.846 3.36932 154.346 3.47301 154.775 3.6804C155.204 3.88778 155.543 4.17898 155.793 4.55398C156.043 4.92898 156.181 5.36932 156.207 5.875H154.494C154.445 5.5483 154.317 5.28551 154.11 5.08665C153.906 4.88494 153.637 4.78409 153.305 4.78409C153.023 4.78409 152.778 4.8608 152.567 5.0142C152.36 5.16477 152.198 5.38494 152.082 5.67472C151.965 5.96449 151.907 6.31534 151.907 6.72727C151.907 7.14489 151.964 7.5 152.077 7.79261C152.194 8.08523 152.357 8.30824 152.567 8.46165C152.778 8.61506 153.023 8.69176 153.305 8.69176C153.512 8.69176 153.698 8.64915 153.863 8.56392C154.031 8.47869 154.168 8.35511 154.276 8.19318C154.387 8.02841 154.46 7.83097 154.494 7.60085H156.207C156.178 8.10085 156.042 8.54119 155.798 8.92188C155.556 9.29972 155.222 9.59517 154.796 9.80824C154.37 10.0213 153.866 10.1278 153.283 10.1278ZM159.014 8.11648L159.018 5.93892H159.282L161.379 3.45455H163.463L160.646 6.74432H160.216L159.014 8.11648ZM157.369 10V1.27273H159.184V10H157.369ZM161.46 10L159.534 7.14915L160.744 5.86648L163.586 10H161.46ZM167.067 10.1278C166.393 10.1278 165.814 9.99148 165.328 9.71875C164.845 9.44318 164.473 9.05398 164.212 8.55114C163.95 8.04545 163.82 7.44744 163.82 6.7571C163.82 6.08381 163.95 5.4929 164.212 4.98438C164.473 4.47585 164.841 4.07955 165.315 3.79545C165.793 3.51136 166.352 3.36932 166.994 3.36932C167.426 3.36932 167.828 3.43892 168.2 3.57812C168.575 3.71449 168.902 3.92045 169.18 4.19602C169.462 4.47159 169.68 4.81818 169.837 5.2358C169.993 5.65057 170.071 6.13636 170.071 6.69318V7.19176H164.544V6.06676H168.362C168.362 5.8054 168.305 5.57386 168.192 5.37216C168.078 5.17045 167.92 5.01278 167.719 4.89915C167.52 4.78267 167.288 4.72443 167.024 4.72443C166.749 4.72443 166.504 4.78835 166.291 4.91619C166.081 5.04119 165.916 5.21023 165.797 5.4233C165.678 5.63352 165.616 5.8679 165.614 6.12642V7.19602C165.614 7.51989 165.673 7.79972 165.793 8.03551C165.915 8.27131 166.087 8.45312 166.308 8.58097C166.53 8.70881 166.793 8.77273 167.097 8.77273C167.298 8.77273 167.483 8.74432 167.651 8.6875C167.818 8.63068 167.962 8.54545 168.081 8.43182C168.2 8.31818 168.291 8.17898 168.354 8.0142L170.033 8.125C169.947 8.52841 169.773 8.88068 169.509 9.18182C169.247 9.48011 168.909 9.71307 168.494 9.88068C168.082 10.0455 167.607 10.1278 167.067 10.1278ZM174.737 3.45455V4.81818H170.795V3.45455H174.737ZM171.69 1.88636H173.506V7.98864C173.506 8.15625 173.531 8.28693 173.582 8.38068C173.634 8.47159 173.705 8.53551 173.795 8.57244C173.889 8.60937 173.997 8.62784 174.119 8.62784C174.205 8.62784 174.29 8.62074 174.375 8.60653C174.46 8.58949 174.526 8.5767 174.571 8.56818L174.857 9.91903C174.766 9.94744 174.638 9.98011 174.473 10.017C174.308 10.0568 174.108 10.081 173.872 10.0895C173.435 10.1065 173.051 10.0483 172.722 9.91477C172.395 9.78125 172.141 9.57386 171.959 9.29261C171.777 9.01136 171.688 8.65625 171.69 8.22727V1.88636ZM181.284 5.32102L179.622 5.4233C179.593 5.28125 179.532 5.15341 179.439 5.03977C179.345 4.9233 179.221 4.83097 179.068 4.76278C178.917 4.69176 178.737 4.65625 178.527 4.65625C178.245 4.65625 178.008 4.71591 177.815 4.83523C177.622 4.9517 177.525 5.10795 177.525 5.30398C177.525 5.46023 177.588 5.59233 177.713 5.70028C177.838 5.80824 178.052 5.89489 178.356 5.96023L179.541 6.19886C180.177 6.32955 180.652 6.53977 180.964 6.82955C181.277 7.11932 181.433 7.5 181.433 7.97159C181.433 8.40057 181.306 8.77699 181.054 9.10085C180.804 9.42472 180.46 9.67756 180.022 9.85938C179.588 10.0384 179.086 10.1278 178.518 10.1278C177.652 10.1278 176.961 9.94744 176.447 9.58665C175.936 9.22301 175.636 8.72869 175.548 8.10369L177.333 8.00994C177.387 8.27415 177.518 8.47585 177.725 8.61506C177.933 8.75142 178.199 8.8196 178.522 8.8196C178.841 8.8196 179.096 8.75852 179.289 8.63636C179.485 8.51136 179.585 8.35085 179.588 8.15483C179.585 7.99006 179.515 7.85511 179.379 7.75C179.243 7.64205 179.032 7.55966 178.748 7.50284L177.615 7.27699C176.975 7.14915 176.5 6.92756 176.187 6.61222C175.877 6.29687 175.723 5.89489 175.723 5.40625C175.723 4.9858 175.836 4.62358 176.064 4.3196C176.294 4.01562 176.616 3.78125 177.031 3.61648C177.449 3.4517 177.937 3.36932 178.497 3.36932C179.324 3.36932 179.974 3.54403 180.449 3.89347C180.926 4.2429 181.204 4.71875 181.284 5.32102Z" fill="white"/>
</svg>
